<svg xmlns="http://www.w3.org/2000/svg" width="1024" height="344" viewBox="0 0 1024 344"><path fill="#FAFAFA" stroke="#FAFAFA" stroke-miterlimit="10" d="M.5-.132h1023v344H.5z"/><path fill="#333" stroke="#333" stroke-miterlimit="10" d="M1023.5 127.131c-6-.245-13.94-3.032-19.973-4.215-5.868-1.15-12.588-1.849-18.991-2.855-6.759-1.062-11.956-3.212-19.011-1.777-6.105 1.241-11.737 3.298-17.886 3.913-12.967 1.297-26.427-.333-39.278-.794-12.327-.442-26.408.236-38.535-2.317-10.705-2.254-20.659-10.971-32.171-11.044-12.533-.08-24.324 5.667-36.926 6.284-13.681.67-37.212-2.186-49.425-6.691-11.823-4.361-19.396-6.84-31.463-8.544-12.846-1.814-40.056-2.197-52.653-4.697-25.062-4.976-33.534-1.315-58.206-7.526-12.521-3.153-24.837-6.842-37.628-8.724-12.736-1.873-24.79-3.039-36.795-6.42-11.326-3.189-22.922-5.119-34.741-6.896-10.824-1.626-20.356-8.611-31.252-11.175-12.083-2.843-24.722-2.144-37.335-4.521-10.588-1.996-22.452-6.911-32.593-10.389-12.829-4.4-22.026-5.932-36.312-3.947-12.811 1.78-26.224 6.354-39.324 5.675-10.88-.563-25.851-4.827-35.453-9.942-9.543-5.085-17.576-8.872-26.178-14.188-4.725-2.92-14.7-11.564-22.498-8.572-13.391 5.137-16.971.235-22.289 4.146-11.03 8.113-10.942 1.881-22.234 6.241-16.832 6.5-17.55 7.767-27.897 11.772-14.838 5.744-19.503 7.604-29.614 11.349-21.964 8.137-43.388 17.608-65.026 26.1C48.492 76.527 25.5 86.04.5 86.04v257.828l1023-.5V127.131z"/><path fill="#333" stroke="#333" stroke-miterlimit="10" d="M239.5 6.853l.781-2.985h-.781V1.085l3.005-.772 2.995.772v2.783h-1.365l.761 3.022z"/></svg>