<?xml version="1.0" encoding="utf-8"?>
<!-- Generator: Adobe Illustrator 15.0.0, SVG Export Plug-In . SVG Version: 6.00 Build 0)  -->
<!DOCTYPE svg PUBLIC "-//W3C//DTD SVG 1.1//EN" "http://www.w3.org/Graphics/SVG/1.1/DTD/svg11.dtd">
<svg version="1.1" id="Layer_1" xmlns="http://www.w3.org/2000/svg" xmlns:xlink="http://www.w3.org/1999/xlink" x="0px" y="0px"
	 width="1024px" height="344px" viewBox="0 0 1024 344" enable-background="new 0 0 1024 344" xml:space="preserve">
<rect x="-0.5" y="-0.132" fill="#FAFAFA" stroke="#FAFAFA" stroke-miterlimit="10" width="1025" height="344"/>
<path fill="#333333" d="M1024,127.399c-6-0.245-14.69-3.209-20.723-4.392c-5.868-1.15-12.463-1.895-18.866-2.901
	c-6.759-1.062-11.894-3.235-18.948-1.8c-6.105,1.241-11.706,3.287-17.854,3.902c-12.967,1.297-26.411-0.339-39.263-0.8
	c-12.327-0.442-26.4,0.233-38.527-2.32c-10.705-2.254-20.655-10.972-32.167-11.045c-12.533-0.08-24.322,5.666-36.924,6.283
	c-13.681,0.67-37.211-2.186-49.424-6.691c-11.823-4.361-19.396-6.84-31.462-8.544c-12.846-1.814-40.056-2.197-52.653-4.697
	c-25.062-4.976-33.534-1.315-58.206-7.526c-12.521-3.153-24.837-6.842-37.628-8.724c-12.736-1.873-24.79-3.039-36.795-6.42
	c-11.326-3.189-22.922-5.119-34.741-6.896c-10.824-1.626-20.356-8.611-31.252-11.175c-12.083-2.843-24.722-2.144-37.335-4.521
	c-10.588-1.996-22.452-6.911-32.593-10.389c-12.829-4.4-22.026-5.932-36.312-3.947c-12.811,1.78-26.224,6.354-39.324,5.675
	c-10.88-0.563-25.851-4.827-35.453-9.942c-9.543-5.085-17.576-8.872-26.178-14.188c-4.725-2.92-14.7-11.564-22.498-8.572
	c-13.391,5.137-16.971,0.235-22.289,4.146c-11.03,8.113-10.942,1.881-22.234,6.241c-16.832,6.5-17.55,7.767-27.897,11.772
	c-14.838,5.744-19.503,7.604-29.614,11.349c-21.964,8.137-43.638,17.608-65.276,26.1C48.242,76.527,25,86.04,0,86.04v258.328h1024
	V127.399z"/>
<polygon fill="#333333" points="240.012,7.579 240.867,4.368 240,4.368 240,1.209 243.006,0.366 246,1.209 246,4.368 245.083,4.368 
	245.915,7.646 "/>
</svg>
